<svg width="224" height="30" viewBox="0 0 224 30" fill="none" xmlns="http://www.w3.org/2000/svg">
<path d="M1.89749 24.2819C2.3648 24.4444 2.79146 24.5663 3.17749 24.6476C3.58384 24.7492 3.94956 24.8 4.27464 24.8C4.7013 24.8 5.05686 24.7187 5.3413 24.5562C5.62575 24.414 5.84924 24.1803 6.01178 23.8552C6.17432 23.5302 6.27591 23.134 6.31654 22.6667L0.495589 6.63619H6.43845L9.48607 16.7238L11.9546 6.63619H17.3489L11.9242 24.5867C11.6194 25.6229 11.1216 26.527 10.4308 27.299C9.74003 28.0914 8.91718 28.701 7.96226 29.1276C7.00734 29.5746 5.9813 29.7981 4.88416 29.7981C4.37622 29.7981 3.86829 29.7473 3.36035 29.6457C2.87273 29.5644 2.38511 29.4222 1.89749 29.219V24.2819ZM26.3413 22.9714C24.9191 22.9714 23.6594 22.7479 22.5623 22.3009C21.4651 21.854 20.5407 21.2444 19.7889 20.4724C19.0575 19.68 18.4988 18.786 18.1127 17.7905C17.747 16.7949 17.5642 15.7486 17.5642 14.6514C17.5642 13.5543 17.747 12.5079 18.1127 11.5124C18.4988 10.4965 19.0575 9.60254 19.7889 8.83047C20.5407 8.05841 21.4651 7.44889 22.5623 7.0019C23.6594 6.55492 24.9191 6.33143 26.3413 6.33143C27.7838 6.33143 29.0435 6.55492 30.1204 7.0019C31.2175 7.44889 32.1318 8.05841 32.8632 8.83047C33.615 9.60254 34.1737 10.4965 34.5394 11.5124C34.9254 12.5079 35.1184 13.5543 35.1184 14.6514C35.1184 15.7486 34.9254 16.7949 34.5394 17.7905C34.1737 18.786 33.615 19.68 32.8632 20.4724C32.1318 21.2444 31.2175 21.854 30.1204 22.3009C29.0435 22.7479 27.7838 22.9714 26.3413 22.9714ZM23.507 14.6514C23.507 15.3625 23.6289 15.9822 23.8727 16.5105C24.1165 17.0184 24.4518 17.4146 24.8784 17.699C25.3051 17.9632 25.7927 18.0952 26.3413 18.0952C26.8899 18.0952 27.3775 17.9632 27.8042 17.699C28.2308 17.4146 28.5661 17.0184 28.8099 16.5105C29.0537 15.9822 29.1756 15.3625 29.1756 14.6514C29.1756 13.9403 29.0537 13.3308 28.8099 12.8229C28.5661 12.2946 28.2308 11.8984 27.8042 11.6343C27.3775 11.3498 26.8899 11.2076 26.3413 11.2076C25.7927 11.2076 25.3051 11.3498 24.8784 11.6343C24.4518 11.8984 24.1165 12.2946 23.8727 12.8229C23.6289 13.3308 23.507 13.9403 23.507 14.6514ZM37.0158 17.1809V6.63619H42.8063V15.8705C42.8063 16.5613 42.9587 17.1098 43.2634 17.5162C43.5885 17.9022 44.0254 18.0952 44.5739 18.0952C44.8787 18.0952 45.1834 18.0546 45.4882 17.9733C45.793 17.8921 46.0977 17.7295 46.4025 17.4857C46.7276 17.2419 47.0425 16.8965 47.3473 16.4495V6.63619H53.1377V16.2667C53.1377 16.8152 53.219 17.2013 53.3815 17.4248C53.5441 17.6279 53.8285 17.7498 54.2349 17.7905V22.6667C53.7269 22.7683 53.2698 22.8394 52.8634 22.88C52.4571 22.9409 52.1015 22.9714 51.7968 22.9714C50.8215 22.9714 50.0495 22.7886 49.4806 22.4229C48.9117 22.0571 48.546 21.4984 48.3834 20.7467L48.2615 20.1676C47.5098 21.1632 46.6057 21.8844 45.5492 22.3314C44.513 22.7581 43.3346 22.9714 42.0139 22.9714C40.4088 22.9714 39.1695 22.4736 38.2958 21.4781C37.4425 20.4825 37.0158 19.0502 37.0158 17.1809Z" fill="#761516"/>
<path d="M73.3646 22.6667V11.2686L69.738 19.2838H66.5684L62.9418 11.2686V22.6667H56.9989V1.02857H63.4904L68.1532 11.2076L72.8465 1.02857H79.3075V22.6667H73.3646ZM82.4623 17.1809V6.63619H88.2527V15.8705C88.2527 16.5613 88.4051 17.1098 88.7099 17.5162C89.035 17.9022 89.4718 18.0952 90.0204 18.0952C90.3251 18.0952 90.6299 18.0546 90.9346 17.9733C91.2394 17.8921 91.5442 17.7295 91.8489 17.4857C92.174 17.2419 92.4889 16.8965 92.7937 16.4495V6.63619H98.5842V16.2667C98.5842 16.8152 98.6654 17.2013 98.828 17.4248C98.9905 17.6279 99.275 17.7498 99.6813 17.7905V22.6667C99.1734 22.7683 98.7162 22.8394 98.3099 22.88C97.9035 22.9409 97.548 22.9714 97.2432 22.9714C96.268 22.9714 95.4959 22.7886 94.927 22.4229C94.3581 22.0571 93.9924 21.4984 93.8299 20.7467L93.708 20.1676C92.9562 21.1632 92.0521 21.8844 90.9956 22.3314C89.9594 22.7581 88.781 22.9714 87.4604 22.9714C85.8553 22.9714 84.6159 22.4736 83.7423 21.4781C82.8889 20.4825 82.4623 19.0502 82.4623 17.1809ZM108.48 22.9714C107.078 22.9714 105.696 22.7479 104.335 22.3009C102.994 21.8336 101.856 21.1632 100.922 20.2895L102.902 16.7238C103.898 17.374 104.853 17.8819 105.767 18.2476C106.702 18.6133 107.545 18.7962 108.297 18.7962C108.723 18.7962 109.038 18.7454 109.242 18.6438C109.445 18.5219 109.546 18.3289 109.546 18.0648C109.546 17.8819 109.475 17.7295 109.333 17.6076C109.191 17.4857 108.957 17.3638 108.632 17.2419C108.327 17.12 107.931 16.9879 107.443 16.8457C106.184 16.3987 105.127 15.9822 104.274 15.5962C103.441 15.2102 102.811 14.7429 102.384 14.1943C101.978 13.6254 101.775 12.8736 101.775 11.939C101.775 10.8419 102.049 9.87682 102.598 9.04381C103.146 8.19047 103.929 7.52 104.944 7.03238C105.981 6.54476 107.22 6.30095 108.662 6.30095C109.739 6.30095 110.816 6.47365 111.893 6.81904C112.99 7.14412 114.047 7.74349 115.062 8.61714L112.868 12.1524C111.852 11.5225 110.989 11.0756 110.278 10.8114C109.587 10.5473 108.967 10.4152 108.419 10.4152C108.155 10.4152 107.921 10.4457 107.718 10.5067C107.535 10.5676 107.393 10.659 107.291 10.7809C107.189 10.9029 107.139 11.0654 107.139 11.2686C107.139 11.4717 107.21 11.6444 107.352 11.7867C107.494 11.9086 107.718 12.0305 108.022 12.1524C108.327 12.254 108.713 12.3759 109.181 12.5181C110.562 12.9244 111.69 13.3409 112.563 13.7676C113.437 14.174 114.077 14.6717 114.483 15.2609C114.91 15.8502 115.123 16.6222 115.123 17.5771C115.123 19.2635 114.524 20.5841 113.325 21.539C112.147 22.494 110.532 22.9714 108.48 22.9714ZM128.384 21.7829C127.856 22.0063 127.287 22.2197 126.678 22.4229C126.088 22.6057 125.479 22.7479 124.849 22.8495C124.239 22.9511 123.64 23.0019 123.051 23.0019C122.177 23.0019 121.375 22.8597 120.643 22.5752C119.912 22.2705 119.323 21.7829 118.876 21.1124C118.449 20.4216 118.236 19.4971 118.236 18.339V10.9943H116.255V6.63619H118.236V1.60762H124.026V6.63619H127.165V10.9943H124.026V16.2971C124.026 16.8254 124.138 17.2013 124.361 17.4248C124.585 17.6279 124.89 17.7295 125.276 17.7295C125.56 17.7295 125.885 17.6787 126.251 17.5771C126.617 17.4756 126.982 17.3536 127.348 17.2114L128.384 21.7829Z" fill="#DA2534"/>
<path d="M135.938 1.02857H141.393L143.374 7.70285L145.386 1.02857H150.841L147.184 11.36L148.738 15.779L153.401 1.02857H159.862L151.694 22.6667H146.544L143.374 14.9257L140.235 22.6667H135.085L126.917 1.02857H133.348L138.041 15.779L139.534 11.36L135.938 1.02857ZM158.159 17.8209C158.159 16.7441 158.454 15.7994 159.043 14.9867C159.632 14.1536 160.445 13.5035 161.481 13.0362C162.538 12.5689 163.737 12.3352 165.077 12.3352C165.707 12.3352 166.297 12.386 166.845 12.4876C167.414 12.5892 167.902 12.7416 168.308 12.9448V12.4571C168.308 11.7054 168.084 11.1467 167.637 10.7809C167.211 10.4152 166.51 10.2324 165.535 10.2324C164.641 10.2324 163.797 10.3848 163.005 10.6895C162.233 10.974 161.42 11.4006 160.567 11.9695L158.891 8.37333C159.968 7.68254 161.095 7.1746 162.274 6.84952C163.472 6.50412 164.752 6.33143 166.114 6.33143C168.653 6.33143 170.614 6.91047 171.996 8.06857C173.397 9.20635 174.098 10.9029 174.098 13.1581V16.2667C174.098 16.8152 174.18 17.2013 174.342 17.4248C174.505 17.6279 174.789 17.7498 175.196 17.7905V22.6667C174.728 22.7683 174.281 22.8394 173.855 22.88C173.448 22.9409 173.083 22.9714 172.757 22.9714C171.721 22.9714 170.929 22.7886 170.38 22.4229C169.852 22.0368 169.507 21.4781 169.344 20.7467L169.222 20.1676C168.511 21.0819 167.688 21.7829 166.754 22.2705C165.819 22.7378 164.824 22.9714 163.767 22.9714C162.711 22.9714 161.756 22.7479 160.902 22.3009C160.049 21.854 159.378 21.2444 158.891 20.4724C158.403 19.68 158.159 18.7962 158.159 17.8209ZM167.546 18.2171C167.77 18.0546 167.952 17.8819 168.095 17.699C168.237 17.4959 168.308 17.2927 168.308 17.0895V15.9009C167.983 15.779 167.607 15.6775 167.18 15.5962C166.774 15.5149 166.408 15.4743 166.083 15.4743C165.392 15.4743 164.803 15.647 164.316 15.9924C163.848 16.3378 163.615 16.7746 163.615 17.3029C163.615 17.5873 163.696 17.8514 163.858 18.0952C164.021 18.3187 164.244 18.5016 164.529 18.6438C164.813 18.7657 165.138 18.8267 165.504 18.8267C165.85 18.8267 166.205 18.7759 166.571 18.6743C166.957 18.5524 167.282 18.4 167.546 18.2171ZM188.354 21.7829C187.826 22.0063 187.257 22.2197 186.648 22.4229C186.059 22.6057 185.449 22.7479 184.819 22.8495C184.21 22.9511 183.61 23.0019 183.021 23.0019C182.147 23.0019 181.345 22.8597 180.613 22.5752C179.882 22.2705 179.293 21.7829 178.846 21.1124C178.419 20.4216 178.206 19.4971 178.206 18.339V10.9943H176.225V6.63619H178.206V1.60762H183.996V6.63619H187.135V10.9943H183.996V16.2971C183.996 16.8254 184.108 17.2013 184.332 17.4248C184.555 17.6279 184.86 17.7295 185.246 17.7295C185.53 17.7295 185.855 17.6787 186.221 17.5771C186.587 17.4756 186.953 17.3536 187.318 17.2114L188.354 21.7829ZM197.741 22.9714C196.319 22.9714 195.059 22.7479 193.962 22.3009C192.885 21.854 191.971 21.2444 191.219 20.4724C190.467 19.68 189.898 18.786 189.512 17.7905C189.126 16.7949 188.933 15.7486 188.933 14.6514C188.933 13.1886 189.268 11.8273 189.939 10.5676C190.63 9.28762 191.625 8.26158 192.926 7.48952C194.246 6.71746 195.851 6.33143 197.741 6.33143C199.671 6.33143 201.296 6.73777 202.617 7.55047C203.938 8.36317 204.923 9.40952 205.573 10.6895L199.935 12.3962C199.671 12.0102 199.346 11.7156 198.96 11.5124C198.594 11.3092 198.178 11.2076 197.71 11.2076C197.182 11.2076 196.705 11.3498 196.278 11.6343C195.851 11.8984 195.506 12.2844 195.242 12.7924C194.998 13.3003 194.876 13.92 194.876 14.6514C194.876 15.3625 194.998 15.9822 195.242 16.5105C195.506 17.0184 195.851 17.4146 196.278 17.699C196.705 17.9632 197.182 18.0952 197.71 18.0952C198.035 18.0952 198.33 18.0546 198.594 17.9733C198.858 17.8717 199.102 17.7295 199.326 17.5467C199.569 17.3638 199.773 17.1505 199.935 16.9067L205.573 18.6133C205.147 19.4667 204.557 20.2184 203.806 20.8686C203.074 21.5187 202.201 22.0368 201.185 22.4229C200.189 22.7886 199.041 22.9714 197.741 22.9714ZM223.528 22.6667H217.738V13.6457C217.738 12.8533 217.555 12.2844 217.189 11.939C216.844 11.5733 216.407 11.3905 215.879 11.3905C215.635 11.3905 215.33 11.4819 214.964 11.6648C214.619 11.8476 214.284 12.1117 213.959 12.4571C213.634 12.8025 213.38 13.2089 213.197 13.6762V22.6667H207.406V0.419044H213.197V9.01333C213.766 8.13968 214.507 7.47936 215.422 7.03238C216.356 6.56508 217.382 6.33143 218.5 6.33143C219.637 6.33143 220.542 6.52444 221.212 6.91047C221.882 7.27619 222.38 7.75365 222.705 8.34285C223.03 8.93206 223.244 9.5619 223.345 10.2324C223.467 10.9029 223.528 11.5327 223.528 12.1219V22.6667Z" fill="#FCF7CB"/>
</svg>
